<mxfile host="app.diagrams.net" modified="2023-06-25T17:34:52.641Z" agent="Mozilla/5.0 (Windows NT 10.0; Win64; x64) AppleWebKit/537.36 (KHTML, like Gecko) Chrome/114.0.0.0 Safari/537.36" etag="6-SXkXdcrRHEb71fflrZ" version="21.5.0" type="device">
  <diagram name="Page-1" id="XJIeMjC5duA6O5OR0y9O">
    <mxGraphModel dx="880" dy="474" grid="1" gridSize="10" guides="1" tooltips="1" connect="1" arrows="1" fold="1" page="1" pageScale="1" pageWidth="827" pageHeight="1169" math="0" shadow="0">
      <root>
        <mxCell id="0" />
        <mxCell id="1" parent="0" />
        <mxCell id="OyQu38g0L_vsD-O0mXer-2" value="START" style="rounded=1;whiteSpace=wrap;html=1;" vertex="1" parent="1">
          <mxGeometry x="380" y="50" width="120" height="30" as="geometry" />
        </mxCell>
        <mxCell id="OyQu38g0L_vsD-O0mXer-3" value="" style="endArrow=classic;html=1;rounded=0;exitX=0.5;exitY=1;exitDx=0;exitDy=0;" edge="1" parent="1" source="OyQu38g0L_vsD-O0mXer-2">
          <mxGeometry width="50" height="50" relative="1" as="geometry">
            <mxPoint x="400" y="270" as="sourcePoint" />
            <mxPoint x="440" y="120" as="targetPoint" />
          </mxGeometry>
        </mxCell>
        <mxCell id="OyQu38g0L_vsD-O0mXer-13" style="edgeStyle=orthogonalEdgeStyle;rounded=0;orthogonalLoop=1;jettySize=auto;html=1;entryX=0.5;entryY=0;entryDx=0;entryDy=0;" edge="1" parent="1" source="OyQu38g0L_vsD-O0mXer-7">
          <mxGeometry relative="1" as="geometry">
            <mxPoint x="440" y="210" as="targetPoint" />
          </mxGeometry>
        </mxCell>
        <mxCell id="OyQu38g0L_vsD-O0mXer-7" value="Power ON&lt;br&gt;Heater is in OFF condition" style="rounded=0;whiteSpace=wrap;html=1;" vertex="1" parent="1">
          <mxGeometry x="380" y="120" width="120" height="60" as="geometry" />
        </mxCell>
        <mxCell id="OyQu38g0L_vsD-O0mXer-8" value="" style="endArrow=classic;html=1;rounded=0;" edge="1" parent="1">
          <mxGeometry width="50" height="50" relative="1" as="geometry">
            <mxPoint x="500" y="150" as="sourcePoint" />
            <mxPoint x="560" y="150" as="targetPoint" />
          </mxGeometry>
        </mxCell>
        <mxCell id="OyQu38g0L_vsD-O0mXer-10" value="Display Date &amp;amp; Time&amp;nbsp;&lt;br&gt;Current room temperature on LCD" style="shape=process;whiteSpace=wrap;html=1;backgroundOutline=1;" vertex="1" parent="1">
          <mxGeometry x="560" y="113" width="130" height="70" as="geometry" />
        </mxCell>
        <mxCell id="OyQu38g0L_vsD-O0mXer-15" style="edgeStyle=orthogonalEdgeStyle;rounded=0;orthogonalLoop=1;jettySize=auto;html=1;" edge="1" parent="1" source="OyQu38g0L_vsD-O0mXer-14">
          <mxGeometry relative="1" as="geometry">
            <mxPoint x="440" y="320" as="targetPoint" />
          </mxGeometry>
        </mxCell>
        <mxCell id="OyQu38g0L_vsD-O0mXer-14" value="System is waiting &lt;br&gt;for user input" style="shape=parallelogram;perimeter=parallelogramPerimeter;whiteSpace=wrap;html=1;fixedSize=1;" vertex="1" parent="1">
          <mxGeometry x="380" y="210" width="120" height="60" as="geometry" />
        </mxCell>
        <mxCell id="OyQu38g0L_vsD-O0mXer-18" style="edgeStyle=orthogonalEdgeStyle;rounded=0;orthogonalLoop=1;jettySize=auto;html=1;" edge="1" parent="1" source="OyQu38g0L_vsD-O0mXer-17">
          <mxGeometry relative="1" as="geometry">
            <mxPoint x="340" y="345" as="targetPoint" />
          </mxGeometry>
        </mxCell>
        <mxCell id="OyQu38g0L_vsD-O0mXer-19" style="edgeStyle=orthogonalEdgeStyle;rounded=0;orthogonalLoop=1;jettySize=auto;html=1;" edge="1" parent="1" source="OyQu38g0L_vsD-O0mXer-17">
          <mxGeometry relative="1" as="geometry">
            <mxPoint x="540" y="345" as="targetPoint" />
          </mxGeometry>
        </mxCell>
        <mxCell id="OyQu38g0L_vsD-O0mXer-17" value="Press Button" style="shape=hexagon;perimeter=hexagonPerimeter2;whiteSpace=wrap;html=1;fixedSize=1;" vertex="1" parent="1">
          <mxGeometry x="380" y="320" width="120" height="50" as="geometry" />
        </mxCell>
        <mxCell id="OyQu38g0L_vsD-O0mXer-24" style="edgeStyle=orthogonalEdgeStyle;rounded=0;orthogonalLoop=1;jettySize=auto;html=1;entryX=0;entryY=0.5;entryDx=0;entryDy=0;" edge="1" parent="1" source="OyQu38g0L_vsD-O0mXer-20" target="OyQu38g0L_vsD-O0mXer-22">
          <mxGeometry relative="1" as="geometry">
            <mxPoint x="320" y="520" as="targetPoint" />
            <Array as="points">
              <mxPoint x="300" y="450" />
            </Array>
          </mxGeometry>
        </mxCell>
        <mxCell id="OyQu38g0L_vsD-O0mXer-32" style="edgeStyle=orthogonalEdgeStyle;rounded=0;orthogonalLoop=1;jettySize=auto;html=1;" edge="1" parent="1">
          <mxGeometry relative="1" as="geometry">
            <mxPoint x="440" y="290" as="targetPoint" />
            <mxPoint x="299" y="345" as="sourcePoint" />
            <Array as="points">
              <mxPoint x="220" y="345" />
              <mxPoint x="220" y="290" />
            </Array>
          </mxGeometry>
        </mxCell>
        <mxCell id="OyQu38g0L_vsD-O0mXer-20" value="Button_2&lt;br&gt;(36C)" style="rhombus;whiteSpace=wrap;html=1;" vertex="1" parent="1">
          <mxGeometry x="260" y="305" width="80" height="80" as="geometry" />
        </mxCell>
        <mxCell id="OyQu38g0L_vsD-O0mXer-33" style="edgeStyle=orthogonalEdgeStyle;rounded=0;orthogonalLoop=1;jettySize=auto;html=1;" edge="1" parent="1" source="OyQu38g0L_vsD-O0mXer-21">
          <mxGeometry relative="1" as="geometry">
            <mxPoint x="440" y="290" as="targetPoint" />
            <Array as="points">
              <mxPoint x="660" y="345" />
              <mxPoint x="660" y="290" />
            </Array>
          </mxGeometry>
        </mxCell>
        <mxCell id="OyQu38g0L_vsD-O0mXer-36" style="edgeStyle=orthogonalEdgeStyle;rounded=0;orthogonalLoop=1;jettySize=auto;html=1;entryX=1;entryY=0.5;entryDx=0;entryDy=0;" edge="1" parent="1" source="OyQu38g0L_vsD-O0mXer-21" target="OyQu38g0L_vsD-O0mXer-22">
          <mxGeometry relative="1" as="geometry">
            <mxPoint x="560" y="530" as="targetPoint" />
            <Array as="points">
              <mxPoint x="580" y="450" />
            </Array>
          </mxGeometry>
        </mxCell>
        <mxCell id="OyQu38g0L_vsD-O0mXer-21" value="Button_1&lt;br&gt;(32C)" style="rhombus;whiteSpace=wrap;html=1;" vertex="1" parent="1">
          <mxGeometry x="540" y="305" width="80" height="80" as="geometry" />
        </mxCell>
        <mxCell id="OyQu38g0L_vsD-O0mXer-38" style="edgeStyle=orthogonalEdgeStyle;rounded=0;orthogonalLoop=1;jettySize=auto;html=1;entryX=0.5;entryY=0;entryDx=0;entryDy=0;" edge="1" parent="1" source="OyQu38g0L_vsD-O0mXer-22" target="OyQu38g0L_vsD-O0mXer-37">
          <mxGeometry relative="1" as="geometry" />
        </mxCell>
        <mxCell id="OyQu38g0L_vsD-O0mXer-22" value="set the temperature as per i/p&lt;br&gt;Relay-Heater ON" style="shape=process;whiteSpace=wrap;html=1;backgroundOutline=1;" vertex="1" parent="1">
          <mxGeometry x="370" y="420" width="140" height="60" as="geometry" />
        </mxCell>
        <mxCell id="OyQu38g0L_vsD-O0mXer-26" value="Yes" style="text;html=1;strokeColor=none;fillColor=none;align=center;verticalAlign=middle;whiteSpace=wrap;rounded=0;" vertex="1" parent="1">
          <mxGeometry x="290" y="400" width="60" height="30" as="geometry" />
        </mxCell>
        <mxCell id="OyQu38g0L_vsD-O0mXer-27" value="Yes" style="text;html=1;strokeColor=none;fillColor=none;align=center;verticalAlign=middle;whiteSpace=wrap;rounded=0;" vertex="1" parent="1">
          <mxGeometry x="527" y="398" width="60" height="30" as="geometry" />
        </mxCell>
        <mxCell id="OyQu38g0L_vsD-O0mXer-29" value="No" style="text;html=1;strokeColor=none;fillColor=none;align=center;verticalAlign=middle;whiteSpace=wrap;rounded=0;" vertex="1" parent="1">
          <mxGeometry x="220" y="305" width="60" height="30" as="geometry" />
        </mxCell>
        <mxCell id="OyQu38g0L_vsD-O0mXer-30" value="No" style="text;html=1;strokeColor=none;fillColor=none;align=center;verticalAlign=middle;whiteSpace=wrap;rounded=0;" vertex="1" parent="1">
          <mxGeometry x="600" y="305" width="60" height="30" as="geometry" />
        </mxCell>
        <mxCell id="OyQu38g0L_vsD-O0mXer-40" style="edgeStyle=orthogonalEdgeStyle;rounded=0;orthogonalLoop=1;jettySize=auto;html=1;entryX=0.5;entryY=0;entryDx=0;entryDy=0;" edge="1" parent="1" source="OyQu38g0L_vsD-O0mXer-37" target="OyQu38g0L_vsD-O0mXer-39">
          <mxGeometry relative="1" as="geometry" />
        </mxCell>
        <mxCell id="OyQu38g0L_vsD-O0mXer-37" value="Display set temperature on LCD" style="rounded=0;whiteSpace=wrap;html=1;" vertex="1" parent="1">
          <mxGeometry x="380" y="530" width="120" height="60" as="geometry" />
        </mxCell>
        <mxCell id="OyQu38g0L_vsD-O0mXer-42" style="edgeStyle=orthogonalEdgeStyle;rounded=0;orthogonalLoop=1;jettySize=auto;html=1;entryX=0.5;entryY=0;entryDx=0;entryDy=0;" edge="1" parent="1" source="OyQu38g0L_vsD-O0mXer-39" target="OyQu38g0L_vsD-O0mXer-41">
          <mxGeometry relative="1" as="geometry" />
        </mxCell>
        <mxCell id="OyQu38g0L_vsD-O0mXer-39" value="If temperature == 32C/36C" style="rounded=0;whiteSpace=wrap;html=1;" vertex="1" parent="1">
          <mxGeometry x="380" y="630" width="120" height="60" as="geometry" />
        </mxCell>
        <mxCell id="OyQu38g0L_vsD-O0mXer-43" style="edgeStyle=orthogonalEdgeStyle;rounded=0;orthogonalLoop=1;jettySize=auto;html=1;" edge="1" parent="1" source="OyQu38g0L_vsD-O0mXer-41">
          <mxGeometry relative="1" as="geometry">
            <mxPoint x="440" y="830" as="targetPoint" />
          </mxGeometry>
        </mxCell>
        <mxCell id="OyQu38g0L_vsD-O0mXer-41" value="Store temperature +&amp;nbsp;&lt;br&gt;time stamp with date&amp;nbsp;&lt;br&gt;in flash chip" style="rounded=0;whiteSpace=wrap;html=1;" vertex="1" parent="1">
          <mxGeometry x="380" y="730" width="120" height="60" as="geometry" />
        </mxCell>
        <mxCell id="OyQu38g0L_vsD-O0mXer-49" style="edgeStyle=orthogonalEdgeStyle;rounded=0;orthogonalLoop=1;jettySize=auto;html=1;entryX=1;entryY=0.5;entryDx=0;entryDy=0;" edge="1" parent="1" source="OyQu38g0L_vsD-O0mXer-44" target="OyQu38g0L_vsD-O0mXer-48">
          <mxGeometry relative="1" as="geometry">
            <Array as="points">
              <mxPoint x="360" y="865" />
              <mxPoint x="360" y="865" />
            </Array>
          </mxGeometry>
        </mxCell>
        <mxCell id="OyQu38g0L_vsD-O0mXer-59" style="edgeStyle=orthogonalEdgeStyle;rounded=0;orthogonalLoop=1;jettySize=auto;html=1;" edge="1" parent="1" source="OyQu38g0L_vsD-O0mXer-44">
          <mxGeometry relative="1" as="geometry">
            <mxPoint x="620" y="930" as="targetPoint" />
          </mxGeometry>
        </mxCell>
        <mxCell id="OyQu38g0L_vsD-O0mXer-44" value="do Relay-Heater OFF" style="rounded=0;whiteSpace=wrap;html=1;" vertex="1" parent="1">
          <mxGeometry x="381" y="830" width="120" height="60" as="geometry" />
        </mxCell>
        <mxCell id="OyQu38g0L_vsD-O0mXer-52" style="edgeStyle=orthogonalEdgeStyle;rounded=0;orthogonalLoop=1;jettySize=auto;html=1;entryX=0.5;entryY=0;entryDx=0;entryDy=0;" edge="1" parent="1" source="OyQu38g0L_vsD-O0mXer-48" target="OyQu38g0L_vsD-O0mXer-50">
          <mxGeometry relative="1" as="geometry" />
        </mxCell>
        <mxCell id="OyQu38g0L_vsD-O0mXer-48" value="if temp&amp;lt;32C/36C&lt;br&gt;" style="rhombus;whiteSpace=wrap;html=1;" vertex="1" parent="1">
          <mxGeometry x="210" y="810" width="110" height="110" as="geometry" />
        </mxCell>
        <mxCell id="OyQu38g0L_vsD-O0mXer-53" style="edgeStyle=orthogonalEdgeStyle;rounded=0;orthogonalLoop=1;jettySize=auto;html=1;entryX=0;entryY=0.5;entryDx=0;entryDy=0;" edge="1" parent="1" source="OyQu38g0L_vsD-O0mXer-50" target="OyQu38g0L_vsD-O0mXer-48">
          <mxGeometry relative="1" as="geometry">
            <mxPoint x="200" y="860" as="targetPoint" />
            <Array as="points">
              <mxPoint x="171" y="970" />
              <mxPoint x="171" y="865" />
            </Array>
          </mxGeometry>
        </mxCell>
        <mxCell id="OyQu38g0L_vsD-O0mXer-56" value="" style="edgeStyle=orthogonalEdgeStyle;rounded=0;orthogonalLoop=1;jettySize=auto;html=1;" edge="1" parent="1" source="OyQu38g0L_vsD-O0mXer-50" target="OyQu38g0L_vsD-O0mXer-54">
          <mxGeometry relative="1" as="geometry" />
        </mxCell>
        <mxCell id="OyQu38g0L_vsD-O0mXer-50" value="Relay-Heater ON" style="rounded=0;whiteSpace=wrap;html=1;" vertex="1" parent="1">
          <mxGeometry x="205" y="950" width="120" height="70" as="geometry" />
        </mxCell>
        <mxCell id="OyQu38g0L_vsD-O0mXer-57" value="" style="edgeStyle=orthogonalEdgeStyle;rounded=0;orthogonalLoop=1;jettySize=auto;html=1;" edge="1" parent="1" source="OyQu38g0L_vsD-O0mXer-54" target="OyQu38g0L_vsD-O0mXer-44">
          <mxGeometry relative="1" as="geometry" />
        </mxCell>
        <mxCell id="OyQu38g0L_vsD-O0mXer-54" value="if temp==32C/36C" style="rhombus;whiteSpace=wrap;html=1;" vertex="1" parent="1">
          <mxGeometry x="384" y="940" width="114" height="90" as="geometry" />
        </mxCell>
        <mxCell id="OyQu38g0L_vsD-O0mXer-67" value="" style="edgeStyle=orthogonalEdgeStyle;rounded=0;orthogonalLoop=1;jettySize=auto;html=1;" edge="1" parent="1" target="OyQu38g0L_vsD-O0mXer-66">
          <mxGeometry relative="1" as="geometry">
            <mxPoint x="620" y="1020" as="sourcePoint" />
          </mxGeometry>
        </mxCell>
        <mxCell id="OyQu38g0L_vsD-O0mXer-70" value="" style="edgeStyle=orthogonalEdgeStyle;rounded=0;orthogonalLoop=1;jettySize=auto;html=1;" edge="1" parent="1" source="OyQu38g0L_vsD-O0mXer-66" target="OyQu38g0L_vsD-O0mXer-69">
          <mxGeometry relative="1" as="geometry" />
        </mxCell>
        <mxCell id="OyQu38g0L_vsD-O0mXer-66" value="All stored data should save in a single file" style="shape=document;whiteSpace=wrap;html=1;boundedLbl=1;" vertex="1" parent="1">
          <mxGeometry x="560" y="1062" width="120" height="80" as="geometry" />
        </mxCell>
        <mxCell id="OyQu38g0L_vsD-O0mXer-69" value="Stop" style="rounded=1;whiteSpace=wrap;html=1;" vertex="1" parent="1">
          <mxGeometry x="560" y="1180" width="120" height="40" as="geometry" />
        </mxCell>
        <mxCell id="OyQu38g0L_vsD-O0mXer-71" value="time == 18:00" style="rhombus;whiteSpace=wrap;html=1;" vertex="1" parent="1">
          <mxGeometry x="568" y="930" width="105" height="100" as="geometry" />
        </mxCell>
        <mxCell id="OyQu38g0L_vsD-O0mXer-72" value="&lt;h1&gt;Amanuensis:&lt;/h1&gt;&lt;div&gt;main.c flow chart&lt;/div&gt;" style="text;html=1;strokeColor=none;fillColor=none;spacing=5;spacingTop=-20;whiteSpace=wrap;overflow=hidden;rounded=0;" vertex="1" parent="1">
          <mxGeometry x="40" y="30" width="190" height="80" as="geometry" />
        </mxCell>
      </root>
    </mxGraphModel>
  </diagram>
</mxfile>
